M48
;Layer_Color=9474304
;FILE_FORMAT=2:5
INCH,LZ
;TYPE=PLATED
T1F00S00C0.01181
T2F00S00C0.02559
T3F00S00C0.02800
T4F00S00C0.03150
T5F00S00C0.03937
T6F00S00C0.07087
;TYPE=NON_PLATED
T7F00S00C0.03543
%
T01
X0028255Y0025879
X0021772Y0041732
X0063701Y0013858
X0059685Y0068543
X0062402Y0081221
X0082243Y0079804
X009185Y0079921
X0089685Y0075866
X010187Y0079528
X010262Y0092606
X0095315Y009437
X0090118Y0093504
X0089803Y0102126
X0094055Y010185
X0085158Y0102992
X0087795Y0106063
X007206Y0110485
X0071516Y0101037
X0071378Y0096732
X007315Y0125354
X0077339Y0123796
X0090094Y0127455
X0093801Y0128151
X0097638Y0127323
X0108543Y012752
X010811Y0147559
X0102854Y0147441
X0143937Y0166024
X0157441Y013374
X0162205Y0137441
X0167441Y0116496
X0160982Y0110573
X0160866Y0096339
X0159764Y0092598
X0147244Y0092402
X0134055Y0096732
X0134912Y0105385
X0118937Y0102874
X0121277Y0097097
X0120591Y0093504
X0121982Y0088716
X0126167Y0091982
X0118071Y0085118
X0185921Y0084107
X004378Y007063
X0038641Y0102908
X0039646Y0108346
X0052284Y0121811
X0042244Y0131968
X0032835Y0149843
X0030581Y0153285
X0018619Y0163071
X0018012Y0179232
X0020768Y0182382
X0022047Y0189272
X0038189Y0178839
X0046358Y0166634
X0008268Y0154961
T02
X0132307Y0017717
X0146087
X0168724
X0182504
T03
X004054Y0054151
X0067028Y0038976
T04
X005815Y00613
T05
X0006555Y0005335
Y0015335
Y0025335
Y0035335
Y0046831
X0087819Y0173622
X0107504
X018937Y0117087
Y0107087
Y0097087
X0007244Y0098858
Y0088858
X0006555Y0076831
Y0066831
Y0056831
X0007244Y0108858
Y0118858
Y0128858
T06
X0186811Y0041614
X0006575Y0188937
T07
X0177461Y0142224
Y0173721
M30
