G04*
G04 #@! TF.GenerationSoftware,Altium Limited,Altium Designer,21.1.1 (26)*
G04*
G04 Layer_Color=2752767*
%FSLAX25Y25*%
%MOIN*%
G70*
G04*
G04 #@! TF.SameCoordinates,04740601-0AD8-466E-96FA-1E4AED34599A*
G04*
G04*
G04 #@! TF.FilePolarity,Positive*
G04*
G01*
G75*
%ADD76C,0.00200*%
%ADD77C,0.00267*%
D76*
X5775Y188137D02*
Y189737D01*
X7375D01*
Y188137D01*
X5775D01*
X186011Y40814D02*
Y42414D01*
X187611D01*
Y40814D01*
X186011D01*
X146087Y16917D02*
X145287Y18517D01*
X146887D01*
X146087Y16917D01*
X132307D02*
X131507Y18517D01*
X133107D01*
X132307Y16917D01*
X7244Y98058D02*
X7644Y98458D01*
X8044D01*
X7644Y98858D01*
X8044Y99258D01*
X7644D01*
X7244Y99658D01*
X6844Y99258D01*
X6444D01*
X6844Y98858D01*
X6444Y98458D01*
X6844D01*
X7244Y98058D01*
X189370Y96287D02*
X189770Y96687D01*
X190170D01*
X189770Y97087D01*
X190170Y97487D01*
X189770D01*
X189370Y97887D01*
X188970Y97487D01*
X188570D01*
X188970Y97087D01*
X188570Y96687D01*
X188970D01*
X189370Y96287D01*
Y106287D02*
X189770Y106687D01*
X190170D01*
X189770Y107087D01*
X190170Y107487D01*
X189770D01*
X189370Y107887D01*
X188970Y107487D01*
X188570D01*
X188970Y107087D01*
X188570Y106687D01*
X188970D01*
X189370Y106287D01*
Y116287D02*
X189770Y116687D01*
X190170D01*
X189770Y117087D01*
X190170Y117487D01*
X189770D01*
X189370Y117887D01*
X188970Y117487D01*
X188570D01*
X188970Y117087D01*
X188570Y116687D01*
X188970D01*
X189370Y116287D01*
X6555Y66031D02*
X6955Y66431D01*
X7355D01*
X6955Y66831D01*
X7355Y67231D01*
X6955D01*
X6555Y67631D01*
X6155Y67231D01*
X5755D01*
X6155Y66831D01*
X5755Y66431D01*
X6155D01*
X6555Y66031D01*
Y56031D02*
X6955Y56431D01*
X7355D01*
X6955Y56831D01*
X7355Y57231D01*
X6955D01*
X6555Y57631D01*
X6155Y57231D01*
X5755D01*
X6155Y56831D01*
X5755Y56431D01*
X6155D01*
X6555Y56031D01*
Y46031D02*
X6955Y46431D01*
X7355D01*
X6955Y46831D01*
X7355Y47231D01*
X6955D01*
X6555Y47631D01*
X6155Y47231D01*
X5755D01*
X6155Y46831D01*
X5755Y46431D01*
X6155D01*
X6555Y46031D01*
Y76031D02*
X6955Y76431D01*
X7355D01*
X6955Y76831D01*
X7355Y77231D01*
X6955D01*
X6555Y77631D01*
X6155Y77231D01*
X5755D01*
X6155Y76831D01*
X5755Y76431D01*
X6155D01*
X6555Y76031D01*
Y24535D02*
X6955Y24935D01*
X7355D01*
X6955Y25335D01*
X7355Y25735D01*
X6955D01*
X6555Y26135D01*
X6155Y25735D01*
X5755D01*
X6155Y25335D01*
X5755Y24935D01*
X6155D01*
X6555Y24535D01*
Y14535D02*
X6955Y14935D01*
X7355D01*
X6955Y15335D01*
X7355Y15735D01*
X6955D01*
X6555Y16135D01*
X6155Y15735D01*
X5755D01*
X6155Y15335D01*
X5755Y14935D01*
X6155D01*
X6555Y14535D01*
Y4535D02*
X6955Y4935D01*
X7355D01*
X6955Y5335D01*
X7355Y5735D01*
X6955D01*
X6555Y6135D01*
X6155Y5735D01*
X5755D01*
X6155Y5335D01*
X5755Y4935D01*
X6155D01*
X6555Y4535D01*
Y34535D02*
X6955Y34935D01*
X7355D01*
X6955Y35335D01*
X7355Y35735D01*
X6955D01*
X6555Y36135D01*
X6155Y35735D01*
X5755D01*
X6155Y35335D01*
X5755Y34935D01*
X6155D01*
X6555Y34535D01*
X7244Y88058D02*
X7644Y88458D01*
X8044D01*
X7644Y88858D01*
X8044Y89258D01*
X7644D01*
X7244Y89658D01*
X6844Y89258D01*
X6444D01*
X6844Y88858D01*
X6444Y88458D01*
X6844D01*
X7244Y88058D01*
Y128058D02*
X7644Y128458D01*
X8044D01*
X7644Y128858D01*
X8044Y129258D01*
X7644D01*
X7244Y129658D01*
X6844Y129258D01*
X6444D01*
X6844Y128858D01*
X6444Y128458D01*
X6844D01*
X7244Y128058D01*
Y118058D02*
X7644Y118458D01*
X8044D01*
X7644Y118858D01*
X8044Y119258D01*
X7644D01*
X7244Y119658D01*
X6844Y119258D01*
X6444D01*
X6844Y118858D01*
X6444Y118458D01*
X6844D01*
X7244Y118058D01*
Y108058D02*
X7644Y108458D01*
X8044D01*
X7644Y108858D01*
X8044Y109258D01*
X7644D01*
X7244Y109658D01*
X6844Y109258D01*
X6444D01*
X6844Y108858D01*
X6444Y108458D01*
X6844D01*
X7244Y108058D01*
X168724Y16917D02*
X167924Y18517D01*
X169524D01*
X168724Y16917D01*
X182504D02*
X181704Y18517D01*
X183304D01*
X182504Y16917D01*
X87819Y172822D02*
X88219Y173222D01*
X88619D01*
X88219Y173622D01*
X88619Y174022D01*
X88219D01*
X87819Y174422D01*
X87419Y174022D01*
X87019D01*
X87419Y173622D01*
X87019Y173222D01*
X87419D01*
X87819Y172822D01*
X107504D02*
X107904Y173222D01*
X108304D01*
X107904Y173622D01*
X108304Y174022D01*
X107904D01*
X107504Y174422D01*
X107104Y174022D01*
X106704D01*
X107104Y173622D01*
X106704Y173222D01*
X107104D01*
X107504Y172822D01*
X84358Y102192D02*
X84758Y102992D01*
X84358Y103792D01*
X85158Y103392D01*
X85957Y103792D01*
X85558Y102992D01*
X85957Y102192D01*
X85158Y102592D01*
X84358Y102192D01*
X120477Y96297D02*
X120877Y97097D01*
X120477Y97897D01*
X121277Y97497D01*
X122077Y97897D01*
X121677Y97097D01*
X122077Y96297D01*
X121277Y96697D01*
X120477Y96297D01*
X81443Y79004D02*
X81843Y79804D01*
X81443Y80604D01*
X82243Y80204D01*
X83043Y80604D01*
X82643Y79804D01*
X83043Y79004D01*
X82243Y79404D01*
X81443Y79004D01*
X88885Y75066D02*
X89285Y75866D01*
X88885Y76666D01*
X89685Y76266D01*
X90485Y76666D01*
X90085Y75866D01*
X90485Y75066D01*
X89685Y75466D01*
X88885Y75066D01*
X76539Y122996D02*
X76939Y123796D01*
X76539Y124596D01*
X77339Y124196D01*
X78139Y124596D01*
X77739Y123796D01*
X78139Y122996D01*
X77339Y123396D01*
X76539Y122996D01*
X94515Y93570D02*
X94915Y94370D01*
X94515Y95170D01*
X95315Y94770D01*
X96115Y95170D01*
X95715Y94370D01*
X96115Y93570D01*
X95315Y93970D01*
X94515Y93570D01*
X61602Y80421D02*
X62002Y81221D01*
X61602Y82020D01*
X62402Y81621D01*
X63202Y82020D01*
X62802Y81221D01*
X63202Y80421D01*
X62402Y80821D01*
X61602Y80421D01*
X70716Y100237D02*
X71116Y101037D01*
X70716Y101837D01*
X71516Y101437D01*
X72316Y101837D01*
X71916Y101037D01*
X72316Y100237D01*
X71516Y100637D01*
X70716Y100237D01*
X101070Y78728D02*
X101470Y79528D01*
X101070Y80328D01*
X101870Y79928D01*
X102670Y80328D01*
X102270Y79528D01*
X102670Y78728D01*
X101870Y79128D01*
X101070Y78728D01*
X91050Y79121D02*
X91450Y79921D01*
X91050Y80721D01*
X91850Y80321D01*
X92650Y80721D01*
X92250Y79921D01*
X92650Y79121D01*
X91850Y79521D01*
X91050Y79121D01*
X89318Y92704D02*
X89718Y93504D01*
X89318Y94304D01*
X90118Y93904D01*
X90918Y94304D01*
X90518Y93504D01*
X90918Y92704D01*
X90118Y93104D01*
X89318Y92704D01*
X121182Y87916D02*
X121582Y88716D01*
X121182Y89516D01*
X121982Y89116D01*
X122782Y89516D01*
X122382Y88716D01*
X122782Y87916D01*
X121982Y88316D01*
X121182Y87916D01*
X101820Y91806D02*
X102220Y92606D01*
X101820Y93406D01*
X102620Y93006D01*
X103420Y93406D01*
X103020Y92606D01*
X103420Y91806D01*
X102620Y92206D01*
X101820Y91806D01*
X93255Y101050D02*
X93655Y101850D01*
X93255Y102650D01*
X94055Y102250D01*
X94855Y102650D01*
X94455Y101850D01*
X94855Y101050D01*
X94055Y101450D01*
X93255Y101050D01*
X119791Y92704D02*
X120191Y93504D01*
X119791Y94304D01*
X120591Y93904D01*
X121391Y94304D01*
X120991Y93504D01*
X121391Y92704D01*
X120591Y93104D01*
X119791Y92704D01*
X118137Y102074D02*
X118537Y102874D01*
X118137Y103674D01*
X118937Y103274D01*
X119737Y103674D01*
X119337Y102874D01*
X119737Y102074D01*
X118937Y102474D01*
X118137Y102074D01*
X89003Y101326D02*
X89403Y102126D01*
X89003Y102926D01*
X89803Y102526D01*
X90603Y102926D01*
X90203Y102126D01*
X90603Y101326D01*
X89803Y101726D01*
X89003Y101326D01*
X86995Y105263D02*
X87395Y106063D01*
X86995Y106863D01*
X87795Y106463D01*
X88595Y106863D01*
X88195Y106063D01*
X88595Y105263D01*
X87795Y105663D01*
X86995Y105263D01*
X107743Y126720D02*
X108143Y127520D01*
X107743Y128320D01*
X108543Y127920D01*
X109343Y128320D01*
X108943Y127520D01*
X109343Y126720D01*
X108543Y127120D01*
X107743Y126720D01*
X96838Y126523D02*
X97238Y127323D01*
X96838Y128123D01*
X97638Y127723D01*
X98438Y128123D01*
X98038Y127323D01*
X98438Y126523D01*
X97638Y126923D01*
X96838Y126523D01*
X93001Y127351D02*
X93401Y128151D01*
X93001Y128951D01*
X93801Y128551D01*
X94601Y128951D01*
X94201Y128151D01*
X94601Y127351D01*
X93801Y127751D01*
X93001Y127351D01*
X89294Y126655D02*
X89694Y127455D01*
X89294Y128255D01*
X90094Y127855D01*
X90894Y128255D01*
X90494Y127455D01*
X90894Y126655D01*
X90094Y127055D01*
X89294Y126655D01*
X160066Y95539D02*
X160466Y96339D01*
X160066Y97139D01*
X160866Y96739D01*
X161666Y97139D01*
X161266Y96339D01*
X161666Y95539D01*
X160866Y95939D01*
X160066Y95539D01*
X42979Y69830D02*
X43380Y70630D01*
X42979Y71430D01*
X43780Y71030D01*
X44579Y71430D01*
X44179Y70630D01*
X44579Y69830D01*
X43780Y70230D01*
X42979Y69830D01*
X7468Y154161D02*
X7868Y154961D01*
X7468Y155761D01*
X8268Y155361D01*
X9068Y155761D01*
X8668Y154961D01*
X9068Y154161D01*
X8268Y154561D01*
X7468Y154161D01*
X146444Y91602D02*
X146844Y92402D01*
X146444Y93202D01*
X147244Y92802D01*
X148044Y93202D01*
X147644Y92402D01*
X148044Y91602D01*
X147244Y92002D01*
X146444Y91602D01*
X62901Y13058D02*
X63301Y13858D01*
X62901Y14658D01*
X63701Y14258D01*
X64501Y14658D01*
X64101Y13858D01*
X64501Y13058D01*
X63701Y13458D01*
X62901Y13058D01*
X17819Y162271D02*
X18218Y163071D01*
X17819Y163871D01*
X18619Y163471D01*
X19419Y163871D01*
X19018Y163071D01*
X19419Y162271D01*
X18619Y162671D01*
X17819Y162271D01*
X160182Y109773D02*
X160582Y110573D01*
X160182Y111373D01*
X160982Y110973D01*
X161782Y111373D01*
X161382Y110573D01*
X161782Y109773D01*
X160982Y110173D01*
X160182Y109773D01*
X134112Y104585D02*
X134512Y105385D01*
X134112Y106185D01*
X134912Y105785D01*
X135712Y106185D01*
X135312Y105385D01*
X135712Y104585D01*
X134912Y104985D01*
X134112Y104585D01*
X133255Y95932D02*
X133655Y96732D01*
X133255Y97532D01*
X134055Y97132D01*
X134855Y97532D01*
X134455Y96732D01*
X134855Y95932D01*
X134055Y96332D01*
X133255Y95932D01*
X161405Y136641D02*
X161805Y137441D01*
X161405Y138241D01*
X162205Y137841D01*
X163005Y138241D01*
X162605Y137441D01*
X163005Y136641D01*
X162205Y137041D01*
X161405Y136641D01*
X166641Y115696D02*
X167041Y116496D01*
X166641Y117296D01*
X167441Y116896D01*
X168241Y117296D01*
X167841Y116496D01*
X168241Y115696D01*
X167441Y116096D01*
X166641Y115696D01*
X143137Y165224D02*
X143537Y166024D01*
X143137Y166824D01*
X143937Y166424D01*
X144737Y166824D01*
X144337Y166024D01*
X144737Y165224D01*
X143937Y165624D01*
X143137Y165224D01*
X156641Y132940D02*
X157041Y133740D01*
X156641Y134540D01*
X157441Y134140D01*
X158241Y134540D01*
X157841Y133740D01*
X158241Y132940D01*
X157441Y133340D01*
X156641Y132940D01*
X185121Y83307D02*
X185521Y84107D01*
X185121Y84907D01*
X185921Y84507D01*
X186721Y84907D01*
X186321Y84107D01*
X186721Y83307D01*
X185921Y83707D01*
X185121Y83307D01*
X66628Y38576D02*
Y38176D01*
X67428D01*
Y38576D01*
X67828D01*
Y39376D01*
X67428D01*
Y39776D01*
X66628D01*
Y39376D01*
X66228D01*
Y38576D01*
X66628D01*
X70578Y95932D02*
X70978Y96732D01*
X70578Y97532D01*
X71378Y97132D01*
X72178Y97532D01*
X71778Y96732D01*
X72178Y95932D01*
X71378Y96332D01*
X70578Y95932D01*
X72350Y124554D02*
X72750Y125354D01*
X72350Y126154D01*
X73150Y125754D01*
X73950Y126154D01*
X73550Y125354D01*
X73950Y124554D01*
X73150Y124954D01*
X72350Y124554D01*
X71260Y109685D02*
X71660Y110485D01*
X71260Y111285D01*
X72060Y110885D01*
X72860Y111285D01*
X72460Y110485D01*
X72860Y109685D01*
X72060Y110085D01*
X71260Y109685D01*
X51484Y121011D02*
X51884Y121811D01*
X51484Y122611D01*
X52284Y122211D01*
X53083Y122611D01*
X52684Y121811D01*
X53083Y121011D01*
X52284Y121411D01*
X51484Y121011D01*
X38846Y107546D02*
X39246Y108346D01*
X38846Y109146D01*
X39646Y108747D01*
X40446Y109146D01*
X40046Y108346D01*
X40446Y107546D01*
X39646Y107947D01*
X38846Y107546D01*
X41444Y131168D02*
X41844Y131968D01*
X41444Y132768D01*
X42244Y132369D01*
X43044Y132768D01*
X42644Y131968D01*
X43044Y131168D01*
X42244Y131569D01*
X41444Y131168D01*
X102054Y146641D02*
X102454Y147441D01*
X102054Y148241D01*
X102854Y147841D01*
X103654Y148241D01*
X103254Y147441D01*
X103654Y146641D01*
X102854Y147041D01*
X102054Y146641D01*
X158964Y91798D02*
X159364Y92598D01*
X158964Y93398D01*
X159764Y92998D01*
X160564Y93398D01*
X160164Y92598D01*
X160564Y91798D01*
X159764Y92198D01*
X158964Y91798D01*
X117271Y84318D02*
X117671Y85118D01*
X117271Y85918D01*
X118071Y85518D01*
X118871Y85918D01*
X118471Y85118D01*
X118871Y84318D01*
X118071Y84718D01*
X117271Y84318D01*
X125367Y91182D02*
X125767Y91982D01*
X125367Y92782D01*
X126167Y92382D01*
X126967Y92782D01*
X126567Y91982D01*
X126967Y91182D01*
X126167Y91582D01*
X125367Y91182D01*
X107310Y146759D02*
X107710Y147559D01*
X107310Y148359D01*
X108110Y147959D01*
X108910Y148359D01*
X108510Y147559D01*
X108910Y146759D01*
X108110Y147159D01*
X107310Y146759D01*
X58885Y67743D02*
X59285Y68543D01*
X58885Y69343D01*
X59685Y68943D01*
X60485Y69343D01*
X60085Y68543D01*
X60485Y67743D01*
X59685Y68143D01*
X58885Y67743D01*
X57350Y60500D02*
X57750D01*
X58150Y60900D01*
X58550Y60500D01*
X58950D01*
Y60900D01*
X58550Y61300D01*
X58950Y61700D01*
Y62100D01*
X58550D01*
X58150Y61700D01*
X57750Y62100D01*
X57350D01*
Y61700D01*
X57750Y61300D01*
X57350Y60900D01*
Y60500D01*
X40140Y53751D02*
Y53351D01*
X40940D01*
Y53751D01*
X41340D01*
Y54551D01*
X40940D01*
Y54951D01*
X40140D01*
Y54551D01*
X39740D01*
Y53751D01*
X40140D01*
X20972Y40932D02*
X21372Y41732D01*
X20972Y42532D01*
X21772Y42132D01*
X22572Y42532D01*
X22172Y41732D01*
X22572Y40932D01*
X21772Y41332D01*
X20972Y40932D01*
X37841Y102108D02*
X38241Y102908D01*
X37841Y103708D01*
X38641Y103308D01*
X39441Y103708D01*
X39041Y102908D01*
X39441Y102108D01*
X38641Y102508D01*
X37841Y102108D01*
X29781Y152485D02*
X30181Y153285D01*
X29781Y154085D01*
X30581Y153685D01*
X31381Y154085D01*
X30981Y153285D01*
X31381Y152485D01*
X30581Y152885D01*
X29781Y152485D01*
X32035Y149042D02*
X32435Y149843D01*
X32035Y150643D01*
X32835Y150242D01*
X33635Y150643D01*
X33235Y149843D01*
X33635Y149042D01*
X32835Y149443D01*
X32035Y149042D01*
X45558Y165834D02*
X45958Y166634D01*
X45558Y167434D01*
X46358Y167034D01*
X47158Y167434D01*
X46758Y166634D01*
X47158Y165834D01*
X46358Y166234D01*
X45558Y165834D01*
X17212Y178432D02*
X17612Y179232D01*
X17212Y180032D01*
X18012Y179632D01*
X18812Y180032D01*
X18412Y179232D01*
X18812Y178432D01*
X18012Y178832D01*
X17212Y178432D01*
X19968Y181582D02*
X20368Y182382D01*
X19968Y183182D01*
X20768Y182782D01*
X21568Y183182D01*
X21168Y182382D01*
X21568Y181582D01*
X20768Y181982D01*
X19968Y181582D01*
X21247Y188472D02*
X21647Y189272D01*
X21247Y190072D01*
X22047Y189672D01*
X22847Y190072D01*
X22447Y189272D01*
X22847Y188472D01*
X22047Y188872D01*
X21247Y188472D01*
X37389Y178039D02*
X37789Y178839D01*
X37389Y179639D01*
X38189Y179239D01*
X38989Y179639D01*
X38589Y178839D01*
X38989Y178039D01*
X38189Y178439D01*
X37389Y178039D01*
X27455Y25079D02*
X27854Y25879D01*
X27455Y26679D01*
X28255Y26279D01*
X29054Y26679D01*
X28655Y25879D01*
X29054Y25079D01*
X28255Y25479D01*
X27455Y25079D01*
D77*
X178261Y142224D02*
G03*
X178261Y142224I-800J0D01*
G01*
Y173721D02*
G03*
X178261Y173721I-800J0D01*
G01*
M02*
