G04*
G04 #@! TF.GenerationSoftware,Altium Limited,Altium Designer,21.1.1 (26)*
G04*
G04 Layer_Physical_Order=2*
G04 Layer_Color=16711680*
%FSLAX25Y25*%
%MOIN*%
G70*
G04*
G04 #@! TF.SameCoordinates,04740601-0AD8-466E-96FA-1E4AED34599A*
G04*
G04*
G04 #@! TF.FilePolarity,Positive*
G04*
G01*
G75*
%ADD64C,0.01181*%
%ADD67C,0.03150*%
%ADD68C,0.06000*%
%ADD69C,0.07874*%
%ADD70R,0.06693X0.06693*%
%ADD71C,0.06693*%
%ADD72P,0.07244X8X112.5*%
%ADD73C,0.02362*%
%ADD74C,0.05000*%
D64*
X669Y81636D02*
Y129676D01*
X866Y36026D02*
X1558Y35335D01*
X6555D01*
X669Y129676D02*
X1701Y128644D01*
X669Y36026D02*
Y81636D01*
X1900Y82867D01*
X74961Y57362D02*
Y77795D01*
X160547Y96339D02*
X160866D01*
X155940Y100945D02*
X160547Y96339D01*
X125125Y100945D02*
X155940D01*
X6555Y66831D02*
X49114D01*
X55866Y73583D01*
X40827Y73583D02*
Y88150D01*
Y73583D02*
X43780Y70630D01*
X3071Y155000D02*
X8228D01*
X669Y157402D02*
X3071Y155000D01*
X8228D02*
X8268Y154961D01*
X669Y129676D02*
Y157402D01*
Y173031D01*
X89004Y79695D02*
X91624D01*
X91850Y79921D01*
X85825Y76516D02*
X89004Y79695D01*
X138386Y92402D02*
X147244D01*
X134055Y96732D02*
X138386Y92402D01*
X66654Y12635D02*
Y32437D01*
X62283Y36807D02*
X66654Y32437D01*
X62283Y15276D02*
Y31299D01*
Y15276D02*
X63701Y13858D01*
X5807Y5335D02*
X59353D01*
X66654Y12635D01*
X63889Y101102D02*
X71452D01*
X71516Y101037D01*
X13330Y82867D02*
X29383Y98920D01*
X1900Y82867D02*
X13330D01*
X669Y173031D02*
X1361Y173723D01*
X19442D01*
X21412Y115709D02*
X38543D01*
X48933Y105319D02*
X56855D01*
X38543Y115709D02*
X48933Y105319D01*
X14877Y109173D02*
X21412Y115709D01*
X62756Y109567D02*
Y118898D01*
X55866Y125787D02*
X62756Y118898D01*
X21033Y125787D02*
X55866D01*
X14104Y118858D02*
X21033Y125787D01*
X7244Y109173D02*
X14562D01*
X7244Y108858D02*
X7559Y109173D01*
X7244Y118858D02*
X14104D01*
X56855Y105319D02*
X60197Y108661D01*
X156653Y12267D02*
Y37047D01*
X162441Y42835D02*
X169426D01*
X156653Y37047D02*
X162441Y42835D01*
X83583Y11575D02*
X155962D01*
X156653Y12267D01*
X57047Y36535D02*
X62283Y31299D01*
X176299Y93228D02*
Y116198D01*
X186382Y126280D01*
X188403D01*
X189094Y126972D01*
Y153110D01*
X107008Y131024D02*
X108110Y132126D01*
X99786Y131024D02*
X107008D01*
X97520Y128757D02*
X99786Y131024D01*
X108110Y132126D02*
Y147559D01*
X104803Y127520D02*
X108543D01*
X91772Y114488D02*
X104803Y127520D01*
X19236Y164866D02*
X21004Y166634D01*
X19236Y164008D02*
Y164866D01*
X18619Y163391D02*
X19236Y164008D01*
X18619Y163071D02*
Y163391D01*
X21004Y166634D02*
X46358D01*
X134912Y105385D02*
X155794D01*
X160982Y110573D01*
X164094Y89567D02*
Y117717D01*
Y89567D02*
X183937Y69724D01*
X164094Y117717D02*
X166496Y120118D01*
X121277Y97097D02*
X125125Y100945D01*
X143937Y166024D02*
Y175883D01*
X167441Y90591D02*
Y116496D01*
X187677Y58093D02*
Y70354D01*
X167441Y90591D02*
X187677Y70354D01*
X116378Y122559D02*
X170905D01*
X176890Y128543D01*
X106772Y112953D02*
X116378Y122559D01*
X174921Y120118D02*
X181181Y126378D01*
X166496Y120118D02*
X174921D01*
X181181Y126378D02*
Y134921D01*
X157520Y133819D02*
X174921D01*
X157441Y133740D02*
X157520Y133819D01*
X176890Y128543D02*
Y131850D01*
X174921Y133819D02*
X176890Y131850D01*
X106772Y98543D02*
Y112953D01*
Y98543D02*
X109843Y95472D01*
Y81361D02*
Y95472D01*
X103285Y74803D02*
X109843Y81361D01*
X100118Y74803D02*
X103285D01*
X99410Y95817D02*
X102620Y92606D01*
X101870Y79528D02*
X105573Y83230D01*
X99410Y95817D02*
Y114210D01*
X97323Y77598D02*
X100118Y74803D01*
X97323Y77598D02*
Y80669D01*
X101811Y85158D01*
X95315Y94370D02*
X101811Y87874D01*
Y85158D02*
Y87874D01*
X78465Y81850D02*
X90118Y93504D01*
X162205Y137441D02*
X162756Y136890D01*
X179213D01*
X181181Y134921D01*
X183245Y60905D02*
X183937Y61597D01*
Y69724D01*
X175157Y60905D02*
X183245D01*
X170118Y55866D02*
X175157Y60905D01*
X169426Y42835D02*
X170118Y43527D01*
Y55866D01*
X175906Y9134D02*
Y26575D01*
X174291Y7520D02*
X175906Y9134D01*
X172756Y29724D02*
X175906Y26575D01*
X82205Y12953D02*
Y38898D01*
Y12953D02*
X83583Y11575D01*
X77992Y43110D02*
Y49567D01*
Y43110D02*
X82205Y38898D01*
X77992Y49567D02*
X83976Y55551D01*
X84668Y72992D02*
X86811D01*
X83976Y72300D02*
X84668Y72992D01*
X83976Y55551D02*
Y72300D01*
X86811Y72992D02*
X89685Y75866D01*
X82815Y76516D02*
X85825D01*
X186985Y57402D02*
X187677Y58093D01*
X172756Y53622D02*
X176535Y57402D01*
X186985D01*
X77284Y8212D02*
Y36417D01*
X77975Y7520D02*
X174291D01*
X77284Y8212D02*
X77975Y7520D01*
X80394Y74094D02*
X82815Y76516D01*
X80394Y57874D02*
Y74094D01*
X72126Y49606D02*
X80394Y57874D01*
X62283Y44685D02*
X74961Y57362D01*
X62283Y36807D02*
Y44685D01*
X72126Y41575D02*
X77284Y36417D01*
X72126Y41575D02*
Y49606D01*
X172756Y29724D02*
Y53622D01*
X181247Y88781D02*
X185921Y84107D01*
X176299Y93228D02*
X180747Y88781D01*
X181247D01*
X164331Y177874D02*
X189094Y153110D01*
X145928Y177874D02*
X164331D01*
X143937Y175883D02*
X145928Y177874D01*
X57047Y36535D02*
Y45197D01*
X69882Y58031D01*
Y77559D01*
X74173Y81850D01*
X78465D01*
X76996Y79831D02*
X82217D01*
X74961Y77795D02*
X76996Y79831D01*
X82217D02*
X82243Y79804D01*
X71339Y85709D02*
X77913D01*
X94055Y101850D01*
X76181Y88504D02*
X89803Y102126D01*
X69567Y88504D02*
X76181D01*
X117638Y98039D02*
X118929Y99331D01*
X117638Y86386D02*
Y98039D01*
X118929Y99331D02*
Y102866D01*
X118937Y102874D01*
X117845Y85344D02*
X118071Y85118D01*
X117845Y85344D02*
Y86179D01*
X117638Y86386D02*
X117845Y86179D01*
X120591Y93504D02*
X124326D01*
X125848Y91982D01*
X126167D01*
X105573Y83230D02*
Y94132D01*
X103051Y96653D02*
X105573Y94132D01*
X103051Y96653D02*
Y113681D01*
X114370Y125000D01*
X73150Y125039D02*
Y125354D01*
X69095Y120984D02*
X73150Y125039D01*
X69095Y113450D02*
Y120984D01*
Y113450D02*
X72060Y110485D01*
X78329Y128743D02*
X79674Y127398D01*
X7360Y128743D02*
X78329D01*
X87476Y106063D02*
X87795D01*
X62756Y109567D02*
X65197Y107126D01*
X86413D01*
X87476Y106063D01*
X60197Y108661D02*
Y113898D01*
X52284Y121811D02*
X60197Y113898D01*
X58307Y101614D02*
X61509Y104816D01*
X72366D01*
X74528Y102655D01*
X77339Y123796D02*
Y124084D01*
X42244Y131968D02*
X42441Y132165D01*
X77339Y124084D02*
X79674Y126419D01*
X42441Y132165D02*
X82441D01*
X85433Y129173D01*
X39646Y108346D02*
X46378Y101614D01*
X58307D01*
X74528Y102655D02*
X76359Y100823D01*
X74528Y102655D02*
Y102655D01*
X60347Y97559D02*
X63889Y101102D01*
X85433Y115180D02*
Y129173D01*
X79674Y126419D02*
Y127398D01*
X86125Y114488D02*
X91772D01*
X85433Y115180D02*
X86125Y114488D01*
X99410Y114210D02*
X111496Y126297D01*
Y155529D01*
X110529Y156496D02*
X111496Y155529D01*
X90094Y127455D02*
X90320Y127681D01*
Y129690D01*
X97520Y127441D02*
Y128757D01*
Y127441D02*
X97638Y127323D01*
X102756Y147539D02*
X102854Y147441D01*
X98839Y147539D02*
X102756D01*
X95273Y131676D02*
Y131690D01*
X93801Y128151D02*
Y130204D01*
X95273Y131690D02*
X96614Y133031D01*
X93801Y130204D02*
X95273Y131676D01*
X90320Y129690D02*
X94173Y133543D01*
Y144843D01*
X159764Y92323D02*
Y92598D01*
X152795Y85354D02*
X159764Y92323D01*
X125344Y85354D02*
X152795D01*
X121982Y88716D02*
X125344Y85354D01*
X114370Y125000D02*
Y156398D01*
X111752Y159016D02*
X114370Y156398D01*
X30630Y95591D02*
X33386D01*
X6555Y76831D02*
X11870D01*
X30630Y95591D01*
X33386D02*
X40827Y88150D01*
X29383Y98920D02*
X34738D01*
X41824Y91833D01*
X62612D01*
X59685Y68543D02*
X63268Y72126D01*
Y77638D01*
X59488Y73543D02*
Y78110D01*
X62402Y81024D01*
X45551Y59606D02*
X59488Y73543D01*
X35512Y59606D02*
X45551D01*
X55866Y73583D02*
Y79094D01*
X62402Y81024D02*
Y81221D01*
X55866Y79094D02*
X62008Y85236D01*
X63268Y77638D02*
X71339Y85709D01*
X66299Y85236D02*
X69567Y88504D01*
X62008Y85236D02*
X66299D01*
X85158Y102992D02*
Y102992D01*
X82988Y100823D02*
X85158Y102992D01*
X76359Y100823D02*
X82988D01*
X21772Y45866D02*
X35512Y59606D01*
X62612Y91833D02*
X67415Y96636D01*
X1701Y128644D02*
X7030D01*
X20768Y182062D02*
X21358Y181472D01*
X7030Y128644D02*
X7244Y128858D01*
X30368Y181499D02*
X35289D01*
X19442Y173723D02*
X22592Y176873D01*
X37949Y178839D02*
X38189D01*
X35289Y181499D02*
X37949Y178839D01*
X21358Y181313D02*
X22592Y180079D01*
X7244Y128858D02*
X7360Y128743D01*
X21358Y181313D02*
Y181472D01*
X28110Y26024D02*
Y33067D01*
X19442Y173723D02*
X22592D01*
Y176873D02*
Y180079D01*
X25938Y35239D02*
X28110Y33067D01*
X67415Y96636D02*
X71282D01*
X28110Y26024D02*
X28255Y25879D01*
X71282Y96636D02*
X71378Y96732D01*
X6651Y35239D02*
X25938D01*
X20768Y182062D02*
Y182382D01*
X22592Y173723D02*
X30368Y181499D01*
X21772Y41732D02*
Y45866D01*
X96614Y133031D02*
Y146359D01*
X38641Y102908D02*
X43990Y97559D01*
X60347D01*
X30582Y153285D02*
X35407Y158110D01*
X30581Y153285D02*
X30582D01*
X32795Y149882D02*
X35922Y153008D01*
X79876D01*
X82323Y155456D01*
Y164213D01*
X78740Y167795D02*
Y183031D01*
Y167795D02*
X82323Y164213D01*
X81969Y181741D02*
X82315Y182087D01*
X81623Y180900D02*
Y181395D01*
X81969Y181741D01*
X81623Y180900D02*
X81737Y168361D01*
X82079Y168020D02*
X85236Y164862D01*
X82315Y182087D02*
X93304D01*
X81737Y168361D02*
X82079Y168020D01*
X85236Y153779D02*
Y164862D01*
X75906Y167106D02*
Y184764D01*
X79457Y158802D02*
Y163555D01*
X75906Y167106D02*
X79457Y163555D01*
X78765Y158110D02*
X79457Y158802D01*
X35407Y158110D02*
X78765D01*
X85236Y153779D02*
X94173Y144843D01*
X78740Y183031D02*
X81240Y185531D01*
X90787Y155591D02*
X98839Y147539D01*
X90787Y155591D02*
Y165394D01*
X93996Y168602D01*
X93386Y156024D02*
X97736Y151673D01*
X93386Y156024D02*
Y164252D01*
X96949Y167815D01*
X81240Y185531D02*
X94390D01*
X75906Y184764D02*
X78642Y187500D01*
X96358D01*
X87819Y155154D02*
X96614Y146359D01*
X101969Y151673D02*
X106791Y156496D01*
X97736Y151673D02*
X101969D01*
X98819Y154035D02*
X101043D01*
X95866Y156988D02*
X98819Y154035D01*
X101043D02*
X106024Y159016D01*
X87819Y155154D02*
Y173622D01*
X106791Y156496D02*
X110529D01*
X95866Y156988D02*
Y162992D01*
X106024Y159016D02*
X111752D01*
X95866Y162992D02*
X99508Y166634D01*
Y184350D01*
X96949Y167815D02*
Y182972D01*
X93996Y168602D02*
Y181395D01*
X93304Y182087D02*
X93996Y181395D01*
X94390Y185531D02*
X96949Y182972D01*
X96358Y187500D02*
X99508Y184350D01*
X17815Y179429D02*
X18012Y179232D01*
X17815Y179429D02*
Y185039D01*
X22047Y189272D01*
D67*
X73006Y2953D02*
X177756D01*
X67028Y38976D02*
X71161Y34843D01*
Y4798D02*
X73006Y2953D01*
X71161Y4798D02*
Y34843D01*
X182504Y7701D02*
Y17717D01*
X177756Y2953D02*
X182504Y7701D01*
Y17717D02*
Y28224D01*
X178445Y49213D02*
X181595Y52362D01*
X190183D01*
X178445Y32283D02*
Y49213D01*
X190183Y52362D02*
X193228Y55408D01*
X180020Y105242D02*
X181865Y107087D01*
X189370D01*
X180020Y97807D02*
Y105242D01*
Y97807D02*
X186842Y90984D01*
X186842D01*
X193228Y84598D01*
Y55408D02*
Y84598D01*
X51002Y54151D02*
X58150Y61300D01*
X40540Y54151D02*
X51002D01*
X178445Y32283D02*
X182504Y28224D01*
D68*
X6575Y188937D02*
D03*
X186811Y41614D02*
D03*
D69*
X146087Y17717D02*
D03*
X132307D02*
D03*
X168724D02*
D03*
X182504D02*
D03*
X87819Y173622D02*
D03*
X107504D02*
D03*
D70*
X7244Y98858D02*
D03*
X6555Y66831D02*
D03*
Y56831D02*
D03*
Y46831D02*
D03*
Y76831D02*
D03*
Y25335D02*
D03*
Y15335D02*
D03*
Y5335D02*
D03*
Y35335D02*
D03*
X7244Y88858D02*
D03*
Y128858D02*
D03*
Y118858D02*
D03*
Y108858D02*
D03*
D71*
X189370Y97087D02*
D03*
Y107087D02*
D03*
D72*
Y117087D02*
D03*
D73*
X85158Y102992D02*
D03*
X121277Y97097D02*
D03*
X82243Y79804D02*
D03*
X89685Y75866D02*
D03*
X77339Y123796D02*
D03*
X95315Y94370D02*
D03*
X62402Y81221D02*
D03*
X71516Y101037D02*
D03*
X101870Y79528D02*
D03*
X91850Y79921D02*
D03*
X90118Y93504D02*
D03*
X121982Y88716D02*
D03*
X102620Y92606D02*
D03*
X94055Y101850D02*
D03*
X120591Y93504D02*
D03*
X118937Y102874D02*
D03*
X89803Y102126D02*
D03*
X87795Y106063D02*
D03*
X108543Y127520D02*
D03*
X97638Y127323D02*
D03*
X93801Y128151D02*
D03*
X90094Y127455D02*
D03*
X160866Y96339D02*
D03*
X43780Y70630D02*
D03*
X8268Y154961D02*
D03*
X147244Y92402D02*
D03*
X63701Y13858D02*
D03*
X18619Y163071D02*
D03*
X160982Y110573D02*
D03*
X134912Y105385D02*
D03*
X134055Y96732D02*
D03*
X162205Y137441D02*
D03*
X167441Y116496D02*
D03*
X143937Y166024D02*
D03*
X157441Y133740D02*
D03*
X185921Y84107D02*
D03*
X71378Y96732D02*
D03*
X73150Y125354D02*
D03*
X72060Y110485D02*
D03*
X52284Y121811D02*
D03*
X39646Y108346D02*
D03*
X42244Y131968D02*
D03*
X102854Y147441D02*
D03*
X159764Y92598D02*
D03*
X118071Y85118D02*
D03*
X126167Y91982D02*
D03*
X108110Y147559D02*
D03*
X59685Y68543D02*
D03*
X21772Y41732D02*
D03*
X38641Y102908D02*
D03*
X30581Y153285D02*
D03*
X32835Y149843D02*
D03*
X46358Y166634D02*
D03*
X18012Y179232D02*
D03*
X20768Y182382D02*
D03*
X22047Y189272D02*
D03*
X38189Y178839D02*
D03*
X28255Y25879D02*
D03*
D74*
X67028Y38976D02*
D03*
X58150Y61300D02*
D03*
X40540Y54151D02*
D03*
M02*
