G04*
G04 #@! TF.GenerationSoftware,Altium Limited,Altium Designer,21.1.1 (26)*
G04*
G04 Layer_Color=16711935*
%FSLAX25Y25*%
%MOIN*%
G70*
G04*
G04 #@! TF.SameCoordinates,04740601-0AD8-466E-96FA-1E4AED34599A*
G04*
G04*
G04 #@! TF.FilePolarity,Negative*
G04*
G01*
G75*
%ADD57C,0.06800*%
%ADD58C,0.08674*%
%ADD59R,0.07087X0.07087*%
%ADD60C,0.07087*%
%ADD61P,0.07671X8X112.5*%
%ADD62C,0.03162*%
%ADD63C,0.05800*%
D57*
X6575Y188937D02*
D03*
X186811Y41614D02*
D03*
D58*
X146087Y17717D02*
D03*
X132307D02*
D03*
X168724D02*
D03*
X182504D02*
D03*
X87819Y173622D02*
D03*
X107504D02*
D03*
D59*
X7244Y98858D02*
D03*
X6555Y66831D02*
D03*
Y56831D02*
D03*
Y46831D02*
D03*
Y76831D02*
D03*
Y25335D02*
D03*
Y15335D02*
D03*
Y5335D02*
D03*
Y35335D02*
D03*
X7244Y88858D02*
D03*
Y128858D02*
D03*
Y118858D02*
D03*
Y108858D02*
D03*
D60*
X189370Y97087D02*
D03*
Y107087D02*
D03*
D61*
Y117087D02*
D03*
D62*
X85158Y102992D02*
D03*
X121277Y97097D02*
D03*
X82243Y79804D02*
D03*
X89685Y75866D02*
D03*
X77339Y123796D02*
D03*
X95315Y94370D02*
D03*
X62402Y81221D02*
D03*
X71516Y101037D02*
D03*
X101870Y79528D02*
D03*
X91850Y79921D02*
D03*
X90118Y93504D02*
D03*
X121982Y88716D02*
D03*
X102620Y92606D02*
D03*
X94055Y101850D02*
D03*
X120591Y93504D02*
D03*
X118937Y102874D02*
D03*
X89803Y102126D02*
D03*
X87795Y106063D02*
D03*
X108543Y127520D02*
D03*
X97638Y127323D02*
D03*
X93801Y128151D02*
D03*
X90094Y127455D02*
D03*
X160866Y96339D02*
D03*
X43780Y70630D02*
D03*
X8268Y154961D02*
D03*
X147244Y92402D02*
D03*
X63701Y13858D02*
D03*
X18619Y163071D02*
D03*
X160982Y110573D02*
D03*
X134912Y105385D02*
D03*
X134055Y96732D02*
D03*
X162205Y137441D02*
D03*
X167441Y116496D02*
D03*
X143937Y166024D02*
D03*
X157441Y133740D02*
D03*
X185921Y84107D02*
D03*
X71378Y96732D02*
D03*
X73150Y125354D02*
D03*
X72060Y110485D02*
D03*
X52284Y121811D02*
D03*
X39646Y108346D02*
D03*
X42244Y131968D02*
D03*
X102854Y147441D02*
D03*
X159764Y92598D02*
D03*
X118071Y85118D02*
D03*
X126167Y91982D02*
D03*
X108110Y147559D02*
D03*
X59685Y68543D02*
D03*
X21772Y41732D02*
D03*
X38641Y102908D02*
D03*
X30581Y153285D02*
D03*
X32835Y149843D02*
D03*
X46358Y166634D02*
D03*
X18012Y179232D02*
D03*
X20768Y182382D02*
D03*
X22047Y189272D02*
D03*
X38189Y178839D02*
D03*
X28255Y25879D02*
D03*
D63*
X67028Y38976D02*
D03*
X58150Y61300D02*
D03*
X40540Y54151D02*
D03*
M02*
