G04*
G04 #@! TF.GenerationSoftware,Altium Limited,Altium Designer,21.1.1 (26)*
G04*
G04 Layer_Color=32768*
%FSLAX25Y25*%
%MOIN*%
G70*
G04*
G04 #@! TF.SameCoordinates,04740601-0AD8-466E-96FA-1E4AED34599A*
G04*
G04*
G04 #@! TF.FilePolarity,Positive*
G04*
G01*
G75*
%ADD12C,0.01000*%
%ADD15C,0.00394*%
%ADD75C,0.00197*%
G36*
X121881Y33109D02*
X121031Y32260D01*
Y33116D01*
X121038Y33109D01*
X121881D01*
Y31676D01*
X121038Y30834D01*
Y33109D01*
X121881D01*
X121908Y33082D01*
X122535D01*
Y32518D01*
X121736Y31719D01*
X121881Y33109D01*
D02*
G37*
G36*
X158298D02*
X157449Y32260D01*
Y33116D01*
X157456Y33109D01*
X158298D01*
Y31676D01*
X157456Y30834D01*
Y33109D01*
X158298D01*
X158326Y33082D01*
X158952D01*
Y32518D01*
X158153Y31719D01*
X158298Y33109D01*
D02*
G37*
D12*
X59261Y110779D02*
G03*
X59261Y110779I-394J0D01*
G01*
D15*
X128544Y127524D02*
Y129492D01*
Y127524D02*
X195473D01*
Y194453D01*
X128544D02*
X195473D01*
X128544Y193468D02*
Y194453D01*
Y129492D02*
Y193468D01*
X63406Y59319D02*
X66405D01*
X64906Y57819D02*
Y60819D01*
X62500Y57303D02*
Y78268D01*
X71161D01*
Y57303D02*
Y78268D01*
X62500Y57303D02*
X71161D01*
X47165Y59201D02*
X50165D01*
X48665Y57701D02*
Y60701D01*
X46260Y57185D02*
Y78150D01*
X54921D01*
Y57185D02*
Y78150D01*
X46260Y57185D02*
X54921D01*
X94906Y100394D02*
Y104331D01*
X92937Y102362D02*
X96874D01*
X74433Y81890D02*
X115378D01*
X74433Y122835D02*
X115378D01*
Y81890D02*
Y122835D01*
X74433Y81890D02*
Y122835D01*
X121881Y33109D02*
X156390D01*
Y2436D02*
Y33109D01*
X121075Y2436D02*
X156390D01*
X121038Y2472D02*
X121075Y2436D01*
X121038Y2472D02*
Y33109D01*
X121881D01*
X73449Y50197D02*
X100614D01*
X73449Y5709D02*
X100614D01*
Y50197D01*
X73449Y5709D02*
Y50197D01*
X87032Y25984D02*
Y29921D01*
X85063Y27953D02*
X89000D01*
X16339Y94685D02*
Y116142D01*
X16437Y116240D01*
X50984D01*
Y94685D02*
Y116240D01*
X16339Y94685D02*
X50984D01*
X31724Y194095D02*
X49835D01*
Y184646D02*
Y194095D01*
X31724Y184646D02*
X49835D01*
X31724D02*
Y194095D01*
X12992D02*
X31102D01*
Y184646D02*
Y194095D01*
X12992Y184646D02*
X31102D01*
X12992D02*
Y194095D01*
X13150Y145933D02*
Y164043D01*
X3701Y145933D02*
X13150D01*
X3701D02*
Y164043D01*
X13150D01*
Y164665D02*
Y182776D01*
X3701Y164665D02*
X13150D01*
X3701D02*
Y182776D01*
X13150D01*
X33094Y50197D02*
X60260D01*
X33094Y5709D02*
X60260D01*
Y50197D01*
X33094Y5709D02*
Y50197D01*
X46677Y25984D02*
Y29921D01*
X44709Y27953D02*
X48646D01*
X179157Y58873D02*
X188606D01*
Y76983D01*
X179157D02*
X188606D01*
X179157Y58873D02*
Y76983D01*
X163409Y58873D02*
X172858D01*
Y76983D01*
X163409D02*
X172858D01*
X163409Y58873D02*
Y76983D01*
X146677Y58873D02*
X156126D01*
Y76983D01*
X146677D02*
X156126D01*
X146677Y58873D02*
Y76983D01*
X130929Y58873D02*
X140378D01*
Y76983D01*
X130929D02*
X140378D01*
X130929Y58873D02*
Y76983D01*
X114197Y58873D02*
Y76983D01*
X123646D01*
Y58873D02*
Y76983D01*
X114197Y58873D02*
X123646D01*
X12992Y135433D02*
Y144882D01*
Y135433D02*
X31102D01*
Y144882D01*
X12992D02*
X31102D01*
X68012Y141732D02*
X86122D01*
Y132283D02*
Y141732D01*
X68012Y132283D02*
X86122D01*
X68012D02*
Y141732D01*
X31724Y135433D02*
Y144882D01*
Y135433D02*
X49835D01*
Y144882D01*
X31724D02*
X49835D01*
X138189Y106496D02*
Y115945D01*
Y106496D02*
X156299D01*
Y115945D01*
X138189D02*
X156299D01*
X138189Y97244D02*
X156299D01*
Y87795D02*
Y97244D01*
X138189Y87795D02*
X156299D01*
X138189D02*
Y97244D01*
X92028Y58858D02*
Y76968D01*
X101476D01*
Y58858D02*
Y76968D01*
X92028Y58858D02*
X101476D01*
X77362Y77067D02*
X86811D01*
X77362Y58957D02*
Y77067D01*
Y58957D02*
X86811D01*
Y77067D01*
X61221Y164370D02*
Y182480D01*
X51772Y164370D02*
X61221D01*
X51772D02*
Y182480D01*
X61221D01*
Y145638D02*
Y163748D01*
X51772Y145638D02*
X61221D01*
X51772D02*
Y163748D01*
X61221D01*
X25197Y57579D02*
Y75689D01*
X15748Y57579D02*
X25197D01*
X15748D02*
Y75689D01*
X25197D01*
X38189Y57579D02*
Y75689D01*
X28740Y57579D02*
X38189D01*
X28740D02*
Y75689D01*
X38189D01*
X88079Y132283D02*
X106189D01*
X88079D02*
Y141732D01*
X106189D01*
Y132283D02*
Y141732D01*
X184449Y122303D02*
X184547Y122402D01*
X194587D01*
X184449Y91791D02*
X194587D01*
X184449D02*
Y122303D01*
X194587Y91791D02*
Y122402D01*
X1634Y42008D02*
X11870D01*
X1634D02*
Y82362D01*
X11870Y42008D02*
Y82362D01*
X1634D02*
X11870D01*
X1634Y512D02*
X11870D01*
X1634D02*
Y40866D01*
X11870Y512D02*
Y40866D01*
X1634D02*
X11870D01*
X1929Y83681D02*
Y133878D01*
X12067Y83681D02*
Y133878D01*
X1929Y83681D02*
X12067D01*
X1929Y133878D02*
X12067D01*
X157456Y33109D02*
X158298D01*
X157456Y2472D02*
Y33109D01*
Y2472D02*
X157492Y2436D01*
X192807D01*
Y33109D01*
X158298D02*
X192807D01*
X29528Y164961D02*
X33465D01*
X31496Y162992D02*
Y166929D01*
D75*
X41732Y154724D02*
Y175197D01*
X21260Y154724D02*
Y175197D01*
Y154724D02*
X41732D01*
X21260Y175197D02*
X41732D01*
M02*
