G04*
G04 #@! TF.GenerationSoftware,Altium Limited,Altium Designer,21.1.1 (26)*
G04*
G04 Layer_Color=8421504*
%FSLAX25Y25*%
%MOIN*%
G70*
G04*
G04 #@! TF.SameCoordinates,04740601-0AD8-466E-96FA-1E4AED34599A*
G04*
G04*
G04 #@! TF.FilePolarity,Positive*
G04*
G01*
G75*
%ADD18R,0.06299X0.02756*%
%ADD19R,0.05512X0.04724*%
%ADD20R,0.08661X0.04724*%
%ADD21R,0.05512X0.06299*%
%ADD22R,0.04842X0.07087*%
%ADD23R,0.01181X0.05709*%
%ADD24R,0.05709X0.01181*%
%ADD25R,0.03740X0.10236*%
%ADD26R,0.19291X0.24410*%
%ADD27R,0.07087X0.04331*%
G04:AMPARAMS|DCode=28|XSize=62.99mil|YSize=86.61mil|CornerRadius=15.75mil|HoleSize=0mil|Usage=FLASHONLY|Rotation=270.000|XOffset=0mil|YOffset=0mil|HoleType=Round|Shape=RoundedRectangle|*
%AMROUNDEDRECTD28*
21,1,0.06299,0.05512,0,0,270.0*
21,1,0.03150,0.08661,0,0,270.0*
1,1,0.03150,-0.02756,-0.01575*
1,1,0.03150,-0.02756,0.01575*
1,1,0.03150,0.02756,0.01575*
1,1,0.03150,0.02756,-0.01575*
%
%ADD28ROUNDEDRECTD28*%
%ADD29R,0.08661X0.06299*%
%ADD30R,0.04528X0.07087*%
%ADD31R,0.07087X0.03937*%
%ADD32R,0.04331X0.05118*%
%ADD33R,0.07087X0.04528*%
%ADD34R,0.01968X0.01378*%
%ADD35R,0.03937X0.07087*%
%ADD36R,0.03150X0.00984*%
%ADD37R,0.00984X0.03150*%
%ADD38R,0.10630X0.10236*%
D18*
X136122Y170571D02*
D03*
Y166240D02*
D03*
Y161909D02*
D03*
Y157579D02*
D03*
Y153248D02*
D03*
Y148917D02*
D03*
Y144587D02*
D03*
Y140256D02*
D03*
Y135925D02*
D03*
D19*
X138484Y131201D02*
D03*
D20*
X175886D02*
D03*
X175886Y192224D02*
D03*
D21*
X138091Y188681D02*
D03*
D22*
X66831Y62520D02*
D03*
D03*
Y72835D02*
D03*
X50590Y62402D02*
D03*
D03*
Y72716D02*
D03*
D23*
X84079Y118996D02*
D03*
X86047D02*
D03*
X88016D02*
D03*
X89984D02*
D03*
X91953D02*
D03*
X93921D02*
D03*
X95890D02*
D03*
X97858D02*
D03*
X99827D02*
D03*
X101795D02*
D03*
X103764D02*
D03*
X105732D02*
D03*
Y85728D02*
D03*
X103764D02*
D03*
X101795D02*
D03*
X99827D02*
D03*
X97858D02*
D03*
X95890D02*
D03*
X93921D02*
D03*
X91953D02*
D03*
X89984D02*
D03*
X88016D02*
D03*
X86047D02*
D03*
X84079D02*
D03*
D24*
X111539Y113189D02*
D03*
Y111221D02*
D03*
Y109252D02*
D03*
Y107283D02*
D03*
Y105315D02*
D03*
Y103347D02*
D03*
Y101378D02*
D03*
Y99410D02*
D03*
Y97441D02*
D03*
Y95473D02*
D03*
Y93504D02*
D03*
Y91535D02*
D03*
X78272D02*
D03*
Y93504D02*
D03*
Y95473D02*
D03*
Y97441D02*
D03*
Y99410D02*
D03*
Y101378D02*
D03*
Y103347D02*
D03*
Y105315D02*
D03*
Y107283D02*
D03*
Y109252D02*
D03*
Y111221D02*
D03*
Y113189D02*
D03*
D25*
X96008Y44291D02*
D03*
X78055D02*
D03*
X37701D02*
D03*
X55654D02*
D03*
D26*
X87032Y18701D02*
D03*
X46677D02*
D03*
D27*
X21555Y98228D02*
D03*
X45965D02*
D03*
Y112795D02*
D03*
X21555D02*
D03*
D28*
X129331Y46752D02*
D03*
D29*
X146653D02*
D03*
D30*
X153150Y111221D02*
D03*
Y92520D02*
D03*
X34874Y189370D02*
D03*
X46685D02*
D03*
X16142D02*
D03*
X27953D02*
D03*
Y140157D02*
D03*
X16142D02*
D03*
X71161Y137008D02*
D03*
X82972D02*
D03*
X46685Y140157D02*
D03*
X34874D02*
D03*
X141339Y111221D02*
D03*
Y92520D02*
D03*
D31*
X8425Y160894D02*
D03*
Y149083D02*
D03*
Y179626D02*
D03*
Y167815D02*
D03*
X20472Y72539D02*
D03*
Y60728D02*
D03*
X33465D02*
D03*
Y72539D02*
D03*
D32*
X66510Y100861D02*
D03*
X59002Y109855D02*
D03*
Y100800D02*
D03*
X66446Y109873D02*
D03*
D33*
X183882Y73834D02*
D03*
Y62023D02*
D03*
X168134Y73834D02*
D03*
Y62023D02*
D03*
X151402Y73834D02*
D03*
Y62023D02*
D03*
X135653Y73834D02*
D03*
Y62023D02*
D03*
X118921D02*
D03*
Y73834D02*
D03*
X96752Y62008D02*
D03*
Y73819D02*
D03*
X82087Y62106D02*
D03*
Y73917D02*
D03*
X56496Y179331D02*
D03*
Y167520D02*
D03*
Y160598D02*
D03*
Y148787D02*
D03*
D34*
X166500Y100400D02*
D03*
Y105518D02*
D03*
X172209Y100400D02*
D03*
Y102959D02*
D03*
Y105518D02*
D03*
D03*
D03*
D03*
D03*
D03*
X166500D02*
D03*
Y102959D02*
D03*
X172209Y97841D02*
D03*
X166500D02*
D03*
D35*
X103039Y137008D02*
D03*
X91228D02*
D03*
D36*
X39173Y160039D02*
D03*
Y162008D02*
D03*
Y163976D02*
D03*
Y165945D02*
D03*
Y167913D02*
D03*
Y169882D02*
D03*
X23819D02*
D03*
Y167913D02*
D03*
Y165945D02*
D03*
Y163976D02*
D03*
Y162008D02*
D03*
Y160039D02*
D03*
D37*
X36417Y172638D02*
D03*
X34449D02*
D03*
X32480D02*
D03*
X30512D02*
D03*
X28543D02*
D03*
X26575D02*
D03*
Y157283D02*
D03*
X28543D02*
D03*
X30512D02*
D03*
X32480D02*
D03*
X34449D02*
D03*
X36417D02*
D03*
D38*
X31496Y164961D02*
D03*
M02*
